<svg xmlns="http://www.w3.org/2000/svg" viewBox="0 0 1200 900" width="1200" height="900">
  <defs>
    <linearGradient id="bg" x1="0" y1="0" x2="1" y2="1">
      <stop offset="0" stop-color="#EEF2FF"/>
      <stop offset="1" stop-color="#ECFEFF"/>
    </linearGradient>
    <linearGradient id="accentGrad" x1="0" y1="0" x2="1" y2="1">
      <stop offset="0" stop-color="#6366F1"/>
      <stop offset="1" stop-color="#22D3EE"/>
    </linearGradient>
    <linearGradient id="barGrad" x1="0" y1="0" x2="1" y2="0">
      <stop offset="0" stop-color="#22D3EE"/>
      <stop offset="1" stop-color="#A78BFA"/>
    </linearGradient>
  </defs>
  <rect rx="40" ry="40" x="10" y="10" width="1180" height="880" fill="url(#bg)"/>
  <g transform="translate(100,90)">
    <rect x="0" y="0" width="1000" height="720" rx="36" ry="36" fill="white" stroke="#E5E7EB"/>
    <rect x="0" y="0" width="1000" height="140" rx="36" ry="36" fill="url(#bg)"/>
    <rect x="40" y="40" width="200" height="60" rx="30" fill="white" stroke="#E5E7EB"/>
    <text x="70" y="78" font-family="Inter, system-ui, Arial" font-size="28" fill="#6366F1">VCG</text>
    <g transform="translate(0,140)">
      
    <g transform="translate(120,100)">
      <rect x="0" y="0" width="360" height="520" rx="20" fill="#FFFFFF" stroke="#6366F1" stroke-width="8"/>
      <rect x="28" y="28" width="304" height="184" rx="14" fill="url(#bg)"/>
      <rect x="28" y="228" width="304" height="24" rx="8" fill="#E2E8F0"/>
      <rect x="28" y="268" width="240" height="14" rx="7" fill="#CBD5E1"/>
      <rect x="28" y="294" width="220" height="14" rx="7" fill="#E2E8F0"/>
      <rect x="28" y="330" width="190" height="14" rx="7" fill="#E2E8F0"/>
      <rect x="28" y="356" width="260" height="14" rx="7" fill="#E2E8F0"/>
      <rect x="28" y="392" width="130" height="14" rx="7" fill="#E2E8F0"/>
    </g>
    <g transform="translate(520,140)">
      <rect x="0" y="0" width="360" height="520" rx="20" fill="#FFFFFF" stroke="#22D3EE" stroke-width="8" opacity="0.6"/>
    </g>
    <g transform="translate(940,220)">
      <rect x="-60" y="-60" width="120" height="120" rx="24" fill="white" stroke="#E5E7EB"/>
      <circle cx="0" cy="0" r="38" fill="url(#accentGrad)"/>
      <rect x="-20" y="46" width="40" height="8" rx="4" fill="url(#barGrad)"/>
    </g>
    
    </g>
  </g>
</svg>