<svg xmlns="http://www.w3.org/2000/svg" viewBox="0 0 1200 900" width="1200" height="900">
  <defs>
    <linearGradient id="bg" x1="0" y1="0" x2="1" y2="1">
      <stop offset="0" stop-color="#EEF2FF"/>
      <stop offset="1" stop-color="#ECFEFF"/>
    </linearGradient>
    <linearGradient id="accentGrad" x1="0" y1="0" x2="1" y2="1">
      <stop offset="0" stop-color="#6366F1"/>
      <stop offset="1" stop-color="#22D3EE"/>
    </linearGradient>
    <linearGradient id="barGrad" x1="0" y1="0" x2="1" y2="0">
      <stop offset="0" stop-color="#22D3EE"/>
      <stop offset="1" stop-color="#A78BFA"/>
    </linearGradient>
  </defs>
  <rect rx="40" ry="40" x="10" y="10" width="1180" height="880" fill="url(#bg)"/>
  <g transform="translate(100,90)">
    <rect x="0" y="0" width="1000" height="720" rx="36" ry="36" fill="white" stroke="#E5E7EB"/>
    <rect x="0" y="0" width="1000" height="140" rx="36" ry="36" fill="url(#bg)"/>
    <rect x="40" y="40" width="200" height="60" rx="30" fill="white" stroke="#E5E7EB"/>
    <text x="70" y="78" font-family="Inter, system-ui, Arial" font-size="28" fill="#6366F1">VCG</text>
    <g transform="translate(0,140)">
      
    <g transform="translate(140,120)">
      <rect x="0" y="0" width="920" height="420" rx="24" fill="#F8FAFC" stroke="#E5E7EB"/>
      <g transform="translate(80,80)">
        <rect x="0" y="0" width="340" height="260" rx="16" fill="white" stroke="#E2E8F0"/>
        <rect x="24" y="24" width="292" height="100" rx="12" fill="url(#bg)"/>
      </g>
      <g transform="translate(480,80)">
        <rect x="0" y="0" width="360" height="260" rx="20" fill="white" stroke="#E2E8F0"/>
        <path d="M60 180 A80 80 0 1 1 220 100" fill="none" stroke="url(#accentGrad)" stroke-width="16" stroke-linecap="round"/>
        <polygon points="220,80 260,100 220,120" fill="url(#accentGrad)"/>
      </g>
    </g>
    
    </g>
  </g>
</svg>