<svg xmlns="http://www.w3.org/2000/svg" viewBox="0 0 1200 900" width="1200" height="900">
  <defs>
    <linearGradient id="bg" x1="0" y1="0" x2="1" y2="1">
      <stop offset="0" stop-color="#EEF2FF"/>
      <stop offset="1" stop-color="#ECFEFF"/>
    </linearGradient>
    <linearGradient id="accentGrad" x1="0" y1="0" x2="1" y2="1">
      <stop offset="0" stop-color="#6366F1"/>
      <stop offset="1" stop-color="#22D3EE"/>
    </linearGradient>
    <linearGradient id="barGrad" x1="0" y1="0" x2="1" y2="0">
      <stop offset="0" stop-color="#22D3EE"/>
      <stop offset="1" stop-color="#A78BFA"/>
    </linearGradient>
  </defs>
  <rect rx="40" ry="40" x="10" y="10" width="1180" height="880" fill="url(#bg)"/>
  <g transform="translate(100,90)">
    <rect x="0" y="0" width="1000" height="720" rx="36" ry="36" fill="white" stroke="#E5E7EB"/>
    <rect x="0" y="0" width="1000" height="140" rx="36" ry="36" fill="url(#bg)"/>
    <rect x="40" y="40" width="200" height="60" rx="30" fill="white" stroke="#E5E7EB"/>
    <text x="70" y="78" font-family="Inter, system-ui, Arial" font-size="28" fill="#6366F1">VCG</text>
    <g transform="translate(0,140)">
      
    <g transform="translate(160,120)">
      <rect x="0" y="0" width="880" height="420" rx="24" fill="#F8FAFC" stroke="#E5E7EB"/>
      <g transform="translate(80,40)">
        <path d="M260,0 L520,80 V220 C520,330 420,380 260,420 C100,380 0,330 0,220 V80 Z" fill="url(#accentGrad)" opacity="0.85"/>
        <path d="M260,28 L488,100 V212 C488,302 404,344 260,380 C116,344 32,302 32,212 V100 Z"
              fill="white" opacity="0.85"/>
        <circle cx="260" cy="200" r="76" fill="none" stroke="url(#barGrad)" stroke-width="16"/>
        <path d="M230,200 l24,24 l50,-50" fill="none" stroke="#6366F1" stroke-width="12" stroke-linecap="round"/>
      </g>
    </g>
    
    </g>
  </g>
</svg>