<svg xmlns="http://www.w3.org/2000/svg" viewBox="0 0 1200 900" width="1200" height="900">
  <defs>
    <linearGradient id="bg" x1="0" y1="0" x2="1" y2="1">
      <stop offset="0" stop-color="#EEF2FF"/>
      <stop offset="1" stop-color="#ECFEFF"/>
    </linearGradient>
    <linearGradient id="accentGrad" x1="0" y1="0" x2="1" y2="1">
      <stop offset="0" stop-color="#6366F1"/>
      <stop offset="1" stop-color="#22D3EE"/>
    </linearGradient>
    <linearGradient id="barGrad" x1="0" y1="0" x2="1" y2="0">
      <stop offset="0" stop-color="#22D3EE"/>
      <stop offset="1" stop-color="#A78BFA"/>
    </linearGradient>
  </defs>
  <rect rx="40" ry="40" x="10" y="10" width="1180" height="880" fill="url(#bg)"/>
  <g transform="translate(100,90)">
    <rect x="0" y="0" width="1000" height="720" rx="36" ry="36" fill="white" stroke="#E5E7EB"/>
    <rect x="0" y="0" width="1000" height="140" rx="36" ry="36" fill="url(#bg)"/>
    <rect x="40" y="40" width="200" height="60" rx="30" fill="white" stroke="#E5E7EB"/>
    <text x="70" y="78" font-family="Inter, system-ui, Arial" font-size="28" fill="#6366F1">VCG</text>
    <g transform="translate(0,140)">
      
    <g transform="translate(120,120)">
      <rect x="0" y="0" width="960" height="420" rx="24" fill="#F8FAFC" stroke="#E5E7EB"/>
      <g transform="translate(80,70)">
        <rect x="0" y="40" width="360" height="220" rx="16" fill="white" stroke="#E2E8F0"/>
        <rect x="24" y="64" width="312" height="60" rx="12" fill="url(#bg)"/>
        <rect x="24" y="140" width="180" height="16" rx="8" fill="#CBD5E1"/>
        <rect x="24" y="168" width="220" height="16" rx="8" fill="#E2E8F0"/>
      </g>
      <g transform="translate(520,100)">
        <rect x="0" y="0" width="320" height="240" rx="20" fill="white" stroke="#E2E8F0"/>
        <path d="M30 60 L110 60 L160 100 L290 100 L290 180 L30 180 Z" fill="url(#accentGrad)" opacity="0.85"/>
        <circle cx="110" cy="200" r="18" fill="#CBD5E1"/>
        <circle cx="250" cy="200" r="18" fill="#CBD5E1"/>
      </g>
    </g>
    
    </g>
  </g>
</svg>