<svg xmlns="http://www.w3.org/2000/svg" viewBox="0 0 1200 900" width="1200" height="900">
  <defs>
    <linearGradient id="bg" x1="0" y1="0" x2="1" y2="1">
      <stop offset="0" stop-color="#EEF2FF"/>
      <stop offset="1" stop-color="#ECFEFF"/>
    </linearGradient>
    <linearGradient id="accentGrad" x1="0" y1="0" x2="1" y2="1">
      <stop offset="0" stop-color="#6366F1"/>
      <stop offset="1" stop-color="#22D3EE"/>
    </linearGradient>
    <linearGradient id="barGrad" x1="0" y1="0" x2="1" y2="0">
      <stop offset="0" stop-color="#22D3EE"/>
      <stop offset="1" stop-color="#A78BFA"/>
    </linearGradient>
  </defs>
  <rect rx="40" ry="40" x="10" y="10" width="1180" height="880" fill="url(#bg)"/>
  <g transform="translate(100,90)">
    <rect x="0" y="0" width="1000" height="720" rx="36" ry="36" fill="white" stroke="#E5E7EB"/>
    <rect x="0" y="0" width="1000" height="140" rx="36" ry="36" fill="url(#bg)"/>
    <rect x="40" y="40" width="200" height="60" rx="30" fill="white" stroke="#E5E7EB"/>
    <text x="70" y="78" font-family="Inter, system-ui, Arial" font-size="28" fill="#6366F1">VCG</text>
    <g transform="translate(0,140)">
      
    <g transform="translate(140,120)">
      <rect x="0" y="0" width="920" height="420" rx="24" fill="#F8FAFC" stroke="#E5E7EB"/>
      <circle cx="100" cy="210" r="46" fill="url(#accentGrad)" opacity="0.7"/><circle cx="250" cy="210" r="46" fill="url(#accentGrad)" opacity="0.75"/><circle cx="400" cy="210" r="46" fill="url(#accentGrad)" opacity="0.7999999999999999"/><circle cx="550" cy="210" r="46" fill="url(#accentGrad)" opacity="0.85"/><circle cx="700" cy="210" r="46" fill="url(#accentGrad)" opacity="0.8999999999999999"/><circle cx="850" cy="210" r="46" fill="url(#accentGrad)" opacity="0.95"/>
      <rect x="60" y="310" width="800" height="12" rx="6" fill="#E2E8F0"/>
      <rect x="60" y="310" width="460" height="12" rx="6" fill="url(#barGrad)"/>
    </g>
    
    </g>
  </g>
</svg>